<?xml version="1.0"?>
<svg xmlns="http://www.w3.org/2000/svg" id="outline" viewBox="0 0 512 512" width="512" height="512"><path d="M490.127,80.288l-232-64a7.978,7.978,0,0,0-4.254,0l-232,64a8,8,0,0,0,0,15.424L48,102.919v54.509A128.825,128.825,0,0,0,24,232v24a8,8,0,0,0,8,8H80a8,8,0,0,0,8-8V232a128.825,128.825,0,0,0-24-74.572V107.333l56,15.448V200c0,4.154,1.792,7.805,5.51,11.048A144.438,144.438,0,0,0,112,272v80a8,8,0,0,0,1.854,5.121l39.034,46.841,23.523,70.568A8,8,0,0,0,184,480h25.376A24.039,24.039,0,0,0,232,496h48a24.039,24.039,0,0,0,22.624-16H328a8,8,0,0,0,7.589-5.47l23.523-70.568,39.034-46.841A8,8,0,0,0,400,352V272a144.491,144.491,0,0,0-13.518-60.946C390.206,207.81,392,204.156,392,200V122.781l98.127-27.069a8,8,0,0,0,0-15.424ZM72,248H40V232a112.819,112.819,0,0,1,16-57.668A112.819,112.819,0,0,1,72,232ZM288,424H224V408a8.009,8.009,0,0,1,8-8h48a8.009,8.009,0,0,1,8,8Zm0,48a8.009,8.009,0,0,1-8,8H232a8.009,8.009,0,0,1-8-8V440h64Zm96-200v77.1l-38.146,45.775a7.988,7.988,0,0,0-1.443,2.591L322.234,464H304V408a24.027,24.027,0,0,0-24-24H232a24.027,24.027,0,0,0-24,24v56H189.766l-22.177-66.53a7.988,7.988,0,0,0-1.443-2.591L128,349.1V272a128.4,128.4,0,0,1,11.644-53.391A147.793,147.793,0,0,0,160,224.046v26.037A55.982,55.982,0,1,0,242.586,320h26.828A55.988,55.988,0,1,0,352,250.083V224.046a147.817,147.817,0,0,0,20.358-5.438A128.466,128.466,0,0,1,384,272Zm-24,24a40,40,0,1,1-40-40A40.045,40.045,0,0,1,360,296Zm-24-53.659A55.963,55.963,0,0,0,264.581,304H247.419A55.978,55.978,0,0,0,176,242.341V226.817c22.815,3.357,50.682,5.183,80,5.183s57.185-1.826,80-5.183ZM192,256a40,40,0,1,1-40,40A40.045,40.045,0,0,1,192,256Zm184-57.07c-1.53,1.4-8.84,6.572-36.588,11.169C316.442,213.9,286.819,216,256,216s-60.442-2.1-83.412-5.9C144.84,205.5,137.53,200.327,136,198.93V127.2l117.873,32.517a8,8,0,0,0,4.254,0L376,127.2ZM256,143.7,54.083,88,256,32.3,457.917,88Z"/><path d="M192,320a24,24,0,1,0-24-24A24.027,24.027,0,0,0,192,320Zm0-32a8,8,0,1,1-8,8A8.009,8.009,0,0,1,192,288Z"/><path d="M296,296a24,24,0,1,0,24-24A24.027,24.027,0,0,0,296,296Zm32,0a8,8,0,1,1-8-8A8.009,8.009,0,0,1,328,296Z"/></svg>
